# xmcd
#
# Track frame offsets: 
#        151
#        18178
#        42197
#        57360
#        72799
#        90938
#        107115
#        124220
#        146421
#        158910
#        179883
#        192154
#
# Disc length: 2746 seconds
#
# Revision: 2
# Processed by: cddbd v1.5.2PL0 Copyright (c) Steve Scherf et al.
# Submitted via: ExactAudioCopy v0.99pb5
#
DISCID=a10ab80c
DTITLE=曹玉荣 - 胡弦论雨
DYEAR=2002
DGENRE=Instrumental
TTITLE0=天涯歌女
TTITLE1=顺流逆流
TTITLE2=边疆的泉水清又纯
TTITLE3=泉水叮咚响
TTITLE4=谁不说俺家乡好
TTITLE5=走西口
TTITLE6=南泥湾
TTITLE7=十送红军
TTITLE8=十五的月亮
TTITLE9=九九艳阳天
TTITLE10=二月里来
TTITLE11=愿亲人养好伤
EXTD=
EXTT0=
EXTT1=
EXTT2=
EXTT3=
EXTT4=
EXTT5=
EXTT6=
EXTT7=
EXTT8=
EXTT9=
EXTT10=
EXTT11=
PLAYORDER=
